<svg xmlns="http://www.w3.org/2000/svg" width="64" height="64" viewBox="0 0 64 64">
  <g transform="translate(2.960 10.880) scale(1.056000) translate(-4.5000 -12.0000)">
  <path d="M14 15 A26 26 0 0 0 14 49" fill="none" stroke="#242424" stroke-width="5" stroke-linecap="round"/>
  <path d="M50 15 A26 26 0 0 1 50 49" fill="none" stroke="#242424" stroke-width="5" stroke-linecap="round"/>
  <path d="M21 21 A17 17 0 0 0 21 43" fill="none" stroke="#242424" stroke-width="4" stroke-linecap="round"/>
  <path d="M43 21 A17 17 0 0 1 43 43" fill="none" stroke="#242424" stroke-width="4" stroke-linecap="round"/>
  <path d="M32 20 C36.5 26 40 30.5 40 35.5 A8 8 0 1 1 24 35.5 C24 30.5 27.5 26 32 20 Z" fill="#242424"/>
  </g>
</svg>
